<?xml version="1.0" encoding="UTF-8" standalone="no"?>
<svg
   xmlns:dc="http://purl.org/dc/elements/1.1/"
   xmlns:cc="http://creativecommons.org/ns#"
   xmlns:rdf="http://www.w3.org/1999/02/22-rdf-syntax-ns#"
   xmlns:svg="http://www.w3.org/2000/svg"
   xmlns="http://www.w3.org/2000/svg"
   xmlns:sodipodi="http://sodipodi.sourceforge.net/DTD/sodipodi-0.dtd"
   xmlns:inkscape="http://www.inkscape.org/namespaces/inkscape"
   width="210mm"
   height="210mm"
   viewBox="0 0 210 210"
   version="1.1"
   id="svg8"
   inkscape:version="1.0.1 (3bc2e813f5, 2020-09-07)"
   sodipodi:docname="logo.svg"
   inkscape:export-filename="/home/just-paja/Work/nakupuj-bez-andreje/logo.png"
   inkscape:export-xdpi="96"
   inkscape:export-ydpi="96">
  <defs
     id="defs2" />
  <sodipodi:namedview
     id="base"
     pagecolor="#ffffff"
     bordercolor="#666666"
     borderopacity="1.0"
     inkscape:pageopacity="0.0"
     inkscape:pageshadow="2"
     inkscape:zoom="0.49497475"
     inkscape:cx="150.29854"
     inkscape:cy="17.883171"
     inkscape:document-units="mm"
     inkscape:current-layer="layer1"
     inkscape:document-rotation="0"
     showgrid="false"
     inkscape:window-width="1920"
     inkscape:window-height="1016"
     inkscape:window-x="640"
     inkscape:window-y="27"
     inkscape:window-maximized="1" />
  <metadata
     id="metadata5">
    <rdf:RDF>
      <cc:Work
         rdf:about="">
        <dc:format>image/svg+xml</dc:format>
        <dc:type
           rdf:resource="http://purl.org/dc/dcmitype/StillImage" />
        <dc:title></dc:title>
      </cc:Work>
    </rdf:RDF>
  </metadata>
  <g
     inkscape:label="Vrstva 1"
     inkscape:groupmode="layer"
     id="layer1">
    <path
       style="fill:#000000;stroke-width:1.17922"
       d="m 84.603302,206.71434 c -21.145925,-3.06439 -25.513365,-5.09589 -29.636471,-13.7846 -0.974943,-2.05448 -4.787808,-5.85188 -8.473149,-8.43868 -3.685358,-2.5868 -7.73828,-5.8519 -9.0065,-7.2558 l -2.305881,-2.55257 5.843534,-4.88111 c 9.022586,-7.53674 15.544914,-14.7853 20.201633,-22.45113 l 4.253819,-7.00248 -0.761571,-10.72924 c -0.532458,-7.50066 -1.273693,-11.01574 -2.463249,-11.68149 -5.15252,-2.88348 -8.879508,-7.27587 -9.583291,-11.29402 -0.419085,-2.39303 -1.499545,-5.52792 -2.400922,-6.966379 -0.901406,-1.438484 -2.667962,-5.41833 -3.92575,-8.84413 -4.947726,-13.476004 -6.858941,-14.839073 -3.957492,-22.156215 2.901449,-7.317142 11.05129,6.81047 9.534113,-14.479203 0.102757,-8.549096 -0.0824,-12.512762 4.331004,-23.634996 C 60.666534,19.440063 75.625036,7.0613739 89.4249,3.2602721 c 17.64072,-4.5948259 48.05804,-0.029241 62.98338,9.4545839 6.26986,3.983813 12.63462,10.903404 15.57969,16.937776 3.44732,7.063554 4.12028,19.258043 1.64779,29.860439 -2.01887,8.657191 -1.60693,13.240375 1.74617,12.153251 7.57986,-2.457501 4.31253,12.384888 -1.80206,19.846946 -2.3101,2.819187 -4.20022,5.755596 -4.20022,6.525344 0,1.724909 -3.87023,8.854428 -7.57156,13.947858 -1.87909,2.58582 -3.2077,6.85969 -4.1626,13.39028 -1.90551,13.03192 -0.9259,17.72168 5.12461,24.53431 3.27652,3.68919 6.09501,8.72601 8.35986,14.93948 1.87927,5.15562 4.05293,10.60195 4.83035,12.10279 1.87427,3.61844 1.00128,6.42823 -3.46842,11.16298 -4.95481,5.24866 -20.8808,15.89519 -27.01495,18.05943 -8.23661,2.90602 -38.55639,3.19321 -56.873653,0.53902 z m 41.214478,-32.38958 c 7.56026,-3.15881 20.69443,-19.15946 20.69443,-25.21078 v -2.83334 l -3.94703,3.35897 c -2.17086,1.84738 -5.16804,5.09853 -6.6604,7.2246 -1.49235,2.12609 -6.19866,7.29983 -10.45848,11.49738 -7.93791,7.82168 -7.83996,9.39413 0.37148,5.96317 z m -9.9652,-6.71652 c 0,-0.57662 -0.77731,-1.04876 -1.72734,-1.04876 -2.11004,0 -4.07034,3.50742 -3.2502,5.81526 0.4624,1.30085 1.10141,1.06825 2.7887,-1.01534 1.20391,-1.48666 2.18884,-3.17498 2.18884,-3.75157 z m 10.61295,-12.64433 c 2.26999,-1.68707 6.43192,-5.47278 9.24875,-8.41251 4.81004,-5.01997 5.0054,-5.11191 3.21256,-1.51255 -1.04988,2.10782 -1.64766,3.83251 -1.32829,3.83251 1.96701,0 9.74364,-9.62269 10.95944,-13.56106 2.06703,-6.69577 1.87126,-7.25316 -1.45149,-4.13166 -1.61886,1.5209 -3.2532,2.45547 -3.63186,2.07677 -0.97591,-0.97634 2.94667,-6.65761 5.56305,-8.05777 3.67188,-1.96522 2.55631,-14.63291 -1.19765,-13.5995 -1.05461,0.28972 -5.46039,0.8733 -9.79062,1.29669 l -7.8732,0.76882 4.0377,6.69589 c 4.05421,6.72322 4.95701,9.64387 2.98103,9.64387 -1.03985,0 -4.53966,-4.94714 -8.67169,-12.25781 -1.51553,-2.68139 -2.92213,-3.66162 -5.25464,-3.66162 -2.43204,0 -3.98258,-1.18526 -6.55776,-5.01163 -2.61152,-3.88069 -4.11068,-5.01168 -6.64304,-5.01168 -5.80949,0 -8.0323,8.89515 -3.44346,13.77977 2.55415,2.71883 7.33185,3.66438 8.55061,1.69237 0.96352,-1.55895 5.29879,-2.43027 6.04939,-1.2159 0.36142,0.58496 -0.64082,1.65489 -2.22723,2.37774 -1.58647,0.72286 -3.45832,2.57371 -4.15964,4.11301 -0.92731,2.03526 -2.5971,3.00992 -6.12188,3.57358 -7.60329,1.2159 -3.04857,2.72637 7.74555,2.56869 5.35003,-0.0836 10.60888,0.47355 12.09379,1.26743 3.12778,1.67398 3.63833,4.39116 0.5638,3.00061 -1.13498,-0.51254 -7.25391,-1.15043 -13.59759,-1.41701 -9.48369,-0.39833 -12.08381,-0.12544 -14.62712,1.54306 -2.683603,1.75823 -2.838933,2.16896 -1.173143,3.10114 1.056013,0.59055 5.367743,1.39641 9.581613,1.79001 7.95281,0.74235 9.07641,1.99682 2.987,3.33429 -1.94479,0.42758 -5.17112,1.59237 -7.1696,2.58931 -4.84623,2.4176 -8.636153,0.67412 -10.444579,-4.80577 -1.030653,-3.12302 -2.340996,-4.45923 -5.344571,-5.45049 -2.932837,-0.96798 -4.172617,-2.19418 -4.714979,-4.66357 -0.773686,-3.52248 1.676945,-10.86212 4.766721,-14.27636 1.589124,-1.75603 0.943052,-2.03597 -7.396548,-3.20631 -5.025764,-0.70476 -9.236767,-1.18387 -9.357772,-1.06268 -0.121165,0.12542 1.860597,2.5184 4.403541,5.32763 4.760468,5.25911 5.644923,8.12964 3.244458,10.53009 -2.067254,2.06715 5.65555,18.12823 10.11355,21.03287 7.814776,5.09198 10.988779,6.35941 16.029089,6.40092 2.91856,0.0279 6.63308,0.79806 8.25452,1.71896 3.52256,2.00184 6.26873,1.36351 11.79218,-2.74167 z M 75.816554,127.3719 c -0.749452,-2.50129 -2.08369,-4.44338 -3.052756,-4.44338 -2.286258,0 -2.190072,0.93316 0.931767,9.03397 2.428848,6.30314 2.687028,6.5881 3.052756,3.36912 0.219773,-1.934 -0.199594,-5.51579 -0.931767,-7.95971 z m 24.706186,-12.69794 c 0,-0.64905 -0.23398,-1.17967 -0.52007,-1.17967 -0.286073,0 -0.847923,0.53062 -1.248753,1.17967 -0.40084,0.64904 -0.16685,1.17968 0.52006,1.17968 0.68677,0 1.248763,-0.53064 1.248763,-1.17968 z m -38.914176,-2.87843 c 0,-0.28554 -0.530648,-0.84821 -1.179263,-1.24933 -0.648617,-0.40113 -1.179264,-0.16724 -1.179264,0.51949 0,0.68666 0.530647,1.24933 1.179264,1.24933 0.648615,0 1.179263,-0.23399 1.179263,-0.51949 z m 32.275,-1.3524 c 2.466873,-0.9471 4.935753,-8.55648 3.305053,-10.18718 -0.67661,-0.676597 -6.026244,-1.780719 -11.887994,-2.453489 -12.911676,-1.48192 -16.616755,-0.387056 -16.616755,4.910429 0,4.89922 2.345839,6.23592 12.673304,7.22174 5.02823,0.4805 9.496802,0.94709 9.930189,1.03761 0.433431,0.0975 1.601663,-0.14766 2.596203,-0.52925 z m 53.441946,-1.53165 c 2.94288,-0.78188 3.35359,-1.48354 3.66781,-6.26681 0.35293,-5.371251 0.34208,-5.387754 -3.82575,-5.874331 -5.05791,-0.59053 -23.58217,1.203768 -27.39516,2.653418 -3.64437,1.385533 -3.51905,5.146023 0.29875,8.963773 2.95637,2.95645 3.32493,3.01717 13.4899,2.22189 5.74776,-0.44986 11.94176,-1.2131 13.76445,-1.69794 z m 9.8755,-0.20332 c -0.2826,-0.93429 -0.5479,-3.1391 -0.58956,-4.8995 -0.0585,-2.4735 -0.389,-2.87539 -1.45413,-1.76882 -1.21297,1.26019 -2.07859,5.48514 -1.70028,8.29882 0.0725,0.53344 1.0592,0.76744 2.19416,0.51952 1.14554,-0.2507 1.83505,-1.20753 1.54988,-2.15018 z M 121.25718,95.696599 c 10.45769,-1.932668 10.65133,-2.030336 8.04259,-4.056354 -2.07065,-1.608128 -1.98695,-1.65117 1.0801,-0.555164 1.82857,0.653352 4.69362,0.844438 6.36677,0.424514 2.13162,-0.534965 2.79217,-0.359047 2.20702,0.587625 -0.58914,0.953217 1.08372,1.351124 5.67871,1.351124 5.54053,0 6.72981,-0.39637 7.95955,-2.653238 3.43936,-6.311832 0.4585,-42.781812 -3.87481,-47.406517 -2.3432,-2.500844 -4.66677,-2.2465 -19.8931,2.17749 -15.20523,4.417848 -26.92365,3.670681 -33.932455,-2.16356 -4.380363,-3.646277 -19.559645,-5.183216 -23.5547,-2.384962 -3.478875,2.436698 -3.516467,8.600895 -0.08915,14.556676 2.428361,4.219398 2.470729,4.739138 0.800011,9.814086 l -1.76416,5.358728 3.87898,-1.620731 c 4.706288,-1.966407 7.848629,-2.025238 15.903658,-0.297786 10.225096,2.192895 16.352306,10.916882 16.352306,23.282582 0,4.738652 0.11009,4.874863 3.93059,4.874863 2.16182,0 7.07031,-0.580233 10.90777,-1.289432 z m 8.746,-8.920412 c -0.97285,-0.324528 -2.5648,-0.852667 -3.53765,-1.173691 -2.45278,-0.80949 2.86159,-5.12329 6.32152,-5.131281 3.32666,-0.0068 13.72516,3.746825 13.72516,4.955646 0,1.213386 -0.93092,1.190973 -5.5476,-0.133793 -2.83441,-0.812959 -4.10508,-0.667412 -5.14829,0.589558 -1.42456,1.71649 -2.73836,1.918268 -5.81314,0.89277 z m 4.71686,-2.564974 c 0,-1.535439 -1.40182,-2.556586 -2.54214,-1.851818 -1.21951,0.753766 -0.16797,2.834468 1.43253,2.834468 0.61031,0 1.10962,-0.44218 1.10962,-0.982582 z m -10.78593,-2.936454 c 1.03665,-1.249035 0.59486,-1.45763 -2.21405,-1.045414 -2.69108,0.395013 -3.50906,0.05855 -3.50906,-1.443965 0,-4.538965 9.74836,-10.076875 17.76904,-10.094281 5.5102,-0.0113 15.24905,3.48982 15.24905,5.483045 0,1.431792 -0.74737,1.681722 -3.24286,1.084274 -7.64671,-1.830452 -13.89775,-2.012677 -15.95673,-0.465181 -1.84183,1.384286 -1.45904,1.527979 3.10373,1.165067 4.46238,-0.354899 5.7711,0.101613 9.17623,3.196804 3.38451,3.077017 3.62297,3.611982 1.61315,3.619091 -1.2971,0.0045 -3.68506,-1.029387 -5.30648,-2.297638 -3.73344,-2.920347 -5.47447,-2.920347 -11.20256,0 -5.35681,2.731047 -7.32115,3.017146 -5.47946,0.798063 z M 73.717989,52.537545 c 1.147369,-0.299018 2.739284,-0.279238 3.537651,0.04318 0.798341,0.323002 -0.140398,0.56771 -2.086072,0.543612 -1.945709,-0.02374 -2.598921,-0.288303 -1.451579,-0.587343 z m 27.695251,41.205397 c 0.26686,-0.810744 -0.35488,-1.474054 -1.38191,-1.474054 -1.026893,0 -1.867093,-0.795948 -1.867093,-1.76881 0,-0.972861 0.53065,-1.768821 1.17926,-1.768821 1.572233,0 1.491543,-2.741197 -0.18927,-6.43023 -1.44285,-3.166739 -3.759943,-4.26895 -2.59558,-1.234681 0.75211,1.95993 -1.368267,2.455731 -2.521601,0.589558 -0.400845,-0.648627 -1.552258,-1.179252 -2.558678,-1.179252 -1.321747,0 -1.056695,0.627298 0.954053,2.258925 l 2.783888,2.25896 -3.29853,0.830942 c -1.814191,0.456953 -5.36403,0.500548 -7.888548,0.09754 -2.725746,-0.435941 -4.899619,-0.23302 -5.352314,0.499452 -1.252801,2.02716 1.847937,4.667772 5.481215,4.667772 1.866293,0 3.393263,0.530647 3.393263,1.179274 0,2.467701 -7.180333,1.187334 -9.920076,-1.768844 -1.502681,-1.621397 -3.732599,-2.956166 -4.95536,-2.96609 -1.867016,-0.01537 -1.939816,-0.201134 -0.454462,-1.161144 1.179263,-0.762131 1.277454,-1.149198 0.29485,-1.161168 -2.315017,-0.02792 -6.376283,4.632033 -5.956236,6.834941 0.315326,1.653905 2.374768,2.106653 12.159482,2.673255 16.718343,0.968115 22.130067,0.735117 22.693667,-0.976907 z M 77.401951,80.524802 c -0.367832,-3.159267 -0.01959,-3.562238 3.684575,-4.257059 2.24999,-0.42214 5.553656,-0.439411 7.341479,-0.03899 l 3.250605,0.72899 -2.948038,-1.736642 c -6.286604,-3.703294 -13.125567,-1.110304 -14.638249,5.549928 -0.602513,2.652593 -0.33134,3.242841 1.489701,3.242841 1.772154,0 2.143358,-0.711697 1.819927,-3.489594 z m 12.507826,2.969571 c 0,-0.285951 -0.530646,-0.847941 -1.179261,-1.248775 -0.648617,-0.400834 -1.179263,-0.166808 -1.179263,0.520068 0,0.686785 0.530646,1.248764 1.179263,1.248764 0.648615,0 1.179261,-0.233981 1.179261,-0.520057 z m -3.537649,-3.017642 c 2.491258,-0.79778 2.160725,-0.962406 -2.133217,-1.061713 -3.113247,-0.07245 -4.799006,0.339154 -4.35247,1.061713 0.830792,1.344308 2.287985,1.344308 6.485687,0 z m 82.333162,-5.84959 c 0.82648,-2.479543 -2.37548,-0.751551 -4.40391,2.376577 l -1.86975,2.883387 2.88342,-1.869733 c 1.58588,-1.028427 3.11149,-2.553965 3.39024,-3.390231 z M 49.063618,75.170312 c 0.373264,-0.972839 0.221591,-1.768818 -0.33733,-1.768818 -0.558781,0 -1.321465,0.795979 -1.694799,1.768818 -0.373264,0.972862 -0.221591,1.768833 0.337329,1.768833 0.558782,0 1.321466,-0.795971 1.6948,-1.768833 z M 71.53438,36.256152 c 4.305685,0 4.831652,-0.31156 4.97767,-2.948052 0.08915,-1.621429 0.572712,-4.009344 1.073274,-5.306478 0.806558,-2.090405 0.55349,-2.033537 -2.226896,0.500424 -2.535715,2.310935 -3.136865,2.487511 -3.136865,0.92146 0,-1.32091 -0.623129,-1.698268 -1.95837,-1.185809 -1.553462,0.596109 -1.820095,0.222705 -1.289572,-1.805833 0.389142,-1.488097 0.122572,-2.557331 -0.638727,-2.557331 -2.26581,0 -9.084676,7.431505 -9.084676,9.900898 0,1.837852 0.314489,2.048501 1.415059,0.947924 2.366747,-2.366746 3.601499,-1.590453 2.765889,1.738904 -0.723549,2.882935 -0.616305,3.0096 1.248622,1.474025 1.12216,-0.923964 4.206716,-1.679934 6.854648,-1.679934 z m 19.554626,-1.838428 c 0,-0.610316 -0.530658,-1.109624 -1.179263,-1.109624 -0.648621,0 -1.179269,0.827308 -1.179269,1.838421 0,1.011154 0.530648,1.510447 1.179269,1.109631 0.648605,-0.400838 1.179263,-1.228155 1.179263,-1.838428 z m 46.755414,-0.303348 c 1.40454,-1.40453 -1.08944,-3.164777 -4.48384,-3.164777 h -3.57871 l 0.81087,-5.896095 c 0.45154,-3.282538 0.34374,-5.896083 -0.24318,-5.896083 -2.56768,0 -3.88415,3.329319 -3.88415,9.822946 v 6.992832 l 5.36473,-0.604752 c 2.95061,-0.332595 5.65698,-0.896947 6.01416,-1.254194 z m -52.651501,-1.39595 c 0,-0.972855 -0.530648,-1.768827 -1.179265,-1.768827 -0.648613,0 -1.179263,0.795972 -1.179263,1.768827 0,0.972853 0.53065,1.768826 1.179263,1.768826 0.648617,0 1.179265,-0.795973 1.179265,-1.768826 z"
       id="path24"
       sodipodi:nodetypes="cssscccccccsszczcccssssssssssscccsccscccscsccccsssccccccsssscscccssscccccccccscssccccccccccscccsssssssssscssscccccccsccccsscccccscscsccssscscscsscccccscsccscsssccscscsscccsccccccccssssssscccccsssccccsccccccscsccsssssccscssccscscscccccsccssscsccssscscsccssccccsssss" />
    <path
       id="rect8-5"
       style="color:#000000;overflow:visible;fill:#ffffff;fill-opacity:1;stroke:none;stroke-width:1;stop-color:#000000"
       d="m 130.34933,19.157546 c -2.56768,0 -3.884,3.329029 -3.884,9.822656 v 6.992856 l 5.36453,-0.604616 c 2.95061,-0.332594 5.65692,-0.89694 6.0141,-1.254185 1.40454,-1.40453 -1.08956,-3.164666 -4.48396,-3.164666 h -3.57859 l 0.8108,-5.896281 c 0.45154,-3.282538 0.34404,-5.895764 -0.24288,-5.895764 z M 68.33451,23.87457 c -2.26581,0 -9.08472,7.431296 -9.08472,9.900689 0,1.837852 0.31433,2.048838 1.4149,0.948262 2.36675,-2.366746 3.60185,-1.590445 2.76624,1.738913 -0.72355,2.882934 -0.61642,3.009386 1.2485,1.473811 1.12209,-0.923904 4.20655,-1.679903 6.85437,-1.680001 4.30515,-2.9e-5 4.83198,-0.311767 4.97799,-2.948141 0.0891,-1.621428 0.57276,-4.00952 1.07332,-5.306653 0.80656,-2.090405 0.55313,-2.033216 -2.22726,0.500745 -2.53571,2.310935 -3.13676,2.487441 -3.13676,0.921391 0,-1.320909 -0.62277,-1.698433 -1.95802,-1.185974 -1.55346,0.596109 -1.82036,0.222964 -1.28984,-1.805575 0.38914,-1.488097 0.12258,-2.557467 -0.63872,-2.557467 z m 15.67863,7.075021 c -0.64861,0 -1.17926,0.796028 -1.17926,1.768885 0,0.972852 0.53065,1.768883 1.17926,1.768883 0.64862,0 1.17926,-0.796031 1.17926,-1.768883 0,-0.972857 -0.53064,-1.768885 -1.17926,-1.768885 z m 5.89628,2.358512 c -0.64862,0 -1.17925,0.827535 -1.17925,1.838648 0,1.011155 0.53063,1.51031 1.17925,1.109493 0.64861,-0.400839 1.17926,-1.228376 1.17926,-1.838648 0,-0.610314 -0.53065,-1.109493 -1.17926,-1.109493 z M 78.5282,39.578522 c -3.12351,0.02778 -5.81851,0.477289 -7.19181,1.439187 -3.47887,2.436699 -3.5162,8.600954 -0.0889,14.556735 2.42837,4.219398 2.47068,4.738923 0.79996,9.813872 l -1.76424,5.358845 3.87884,-1.620573 c 4.70628,-1.966405 7.84891,-2.025624 15.90393,-0.298173 10.2251,2.192896 16.35198,10.917116 16.35198,23.282818 0,4.73865 0.11052,4.874638 3.93102,4.874638 2.16182,0 7.06989,-0.580128 10.90735,-1.289328 h 5.3e-4 c 10.45769,-1.932667 10.65114,-2.030065 8.0424,-4.056083 -2.07065,-1.608127 -1.98701,-1.651527 1.08004,-0.555522 1.82857,0.653351 4.6939,0.844706 6.36705,0.424781 2.13162,-0.534964 2.79225,-0.359112 2.2071,0.58756 -0.58914,0.953217 1.08374,1.351341 5.67873,1.351341 5.54052,0 6.72945,-0.396719 7.95919,-2.653586 3.43936,-6.311831 0.45861,-42.781704 -3.8747,-47.406409 -2.34319,-2.500845 -4.6665,-2.246344 -19.89284,2.177645 -15.20522,4.417848 -26.924,3.670549 -33.93281,-2.163691 C 92.01641,41.009708 84.49127,39.525481 78.5282,39.578522 Z m 57.45128,29.112434 c 5.5102,-0.0113 15.24919,3.490162 15.24919,5.483387 0,1.431793 -0.7472,1.68162 -3.24269,1.084172 -7.64671,-1.830453 -13.89767,-2.012584 -15.95665,-0.465089 -1.84183,1.384286 -1.45908,1.527698 3.10369,1.164788 4.46238,-0.354899 5.77105,0.101513 9.17618,3.196704 3.38451,3.077017 3.62264,3.612308 1.61282,3.619418 -1.2971,0.0045 -3.68471,-1.029285 -5.30613,-2.297536 -3.73344,-2.920347 -5.47433,-2.920347 -11.20242,0 -5.35681,2.731048 -7.32146,3.016967 -5.47977,0.797885 1.03665,-1.249034 0.59509,-1.457632 -2.21382,-1.045413 -2.69108,0.395012 -3.50934,0.05867 -3.50934,-1.443842 0,-4.538964 9.74826,-10.077067 17.76894,-10.094474 z m -87.25359,4.710825 c -0.55878,0 -1.32165,0.795528 -1.69499,1.768366 -0.37326,0.972863 -0.22147,1.768885 0.33745,1.768885 0.55878,0 1.32165,-0.796022 1.69498,-1.768885 0.37327,-0.972838 0.22148,-1.768366 -0.33744,-1.768366 z m 119.6144,0.04599 c -0.87175,0.05342 -2.70787,1.503021 -4.03903,3.555855 l -1.87017,2.883545 2.88354,-1.869654 c 1.58588,-1.028428 3.11174,-2.554224 3.39049,-3.39049 0.28411,-0.852345 0.0918,-1.207238 -0.36483,-1.179256 z m -85.48625,0.07803 c -4.1647,0.0098 -7.72229,2.666127 -8.76226,7.245035 -0.60251,2.652594 -0.33121,3.243213 1.48983,3.243213 1.77204,0 2.14337,-0.71174 1.82005,-3.489193 -0.36773,-3.158773 -0.0194,-3.562324 3.68453,-4.257104 2.24999,-0.42214 5.55384,-0.439179 7.34167,-0.03876 L 91.6783,76.957628 88.73017,75.2213 C 86.7656,74.06402 84.74708,73.521357 82.85404,73.525797 Z m 13.71699,5.751587 c -0.38409,0.0062 -0.48594,0.556366 -0.0129,1.789038 0.75211,1.95993 -1.36796,2.455802 -2.52129,0.589627 -0.40085,-0.648626 -1.5526,-1.179256 -2.55902,-1.179256 -1.32175,0 -1.05628,0.62715 0.95446,2.258777 l 2.78381,2.258777 -3.2985,0.830958 c -1.81419,0.456952 -5.36441,0.500677 -7.88893,0.09767 -2.72574,-0.435941 -4.89943,-0.232762 -5.35212,0.49971 -1.25281,2.027161 1.84804,4.667414 5.48131,4.667414 1.8663,0 3.39308,0.53063 3.39308,1.179259 0,2.4677 -7.18007,1.187291 -9.91981,-1.768885 -1.50268,-1.621399 -3.73249,-2.955788 -4.95525,-2.965712 -1.86702,-0.01537 -1.94011,-0.201158 -0.45476,-1.161169 1.17927,-0.76213 1.27768,-1.149199 0.29508,-1.161169 -2.31502,-0.02792 -6.37628,4.631817 -5.95623,6.834724 0.31533,1.653906 2.37475,2.106621 12.15947,2.673223 16.71834,0.968113 22.1301,0.735338 22.6937,-0.976685 v -5.29e-4 c 0.26686,-0.810745 -0.35531,-1.47433 -1.38234,-1.47433 -1.0269,0 -1.86707,-0.796023 -1.86707,-1.768883 0,-0.972862 0.53064,-1.768885 1.17925,-1.768885 1.57224,0 1.49168,-2.741064 -0.18913,-6.4301 -0.85669,-1.88025 -2.02142,-3.032691 -2.58279,-3.023587 z m -13.43174,0.132807 c -2.40219,0.04013 -3.64375,0.434364 -3.25303,1.066602 0.83079,1.344308 2.28769,1.344308 6.48539,0 2.49126,-0.79778 2.16074,-0.962644 -2.1332,-1.06195 -0.38916,-0.009 -0.75599,-0.01037 -1.09916,-0.0047 z m 49.64762,1.060919 c 3.32666,-0.0068 13.72474,3.746947 13.72474,4.95577 0,1.213384 -0.93078,1.190924 -5.54746,-0.133842 -2.83441,-0.812959 -4.1048,-0.667343 -5.14801,0.589626 -1.42456,1.71649 -2.7383,1.918468 -5.81308,0.892969 v 5.29e-4 c -0.97285,-0.32453 -2.56492,-0.852548 -3.53777,-1.173572 -2.45278,-0.80949 2.86165,-5.123479 6.32158,-5.13147 z m -44.61744,1.579231 c -0.36752,-0.015 -0.61856,0.242975 -0.61856,0.715201 0,0.686787 0.53064,1.249021 1.17926,1.249021 0.64861,0 1.17925,-0.234307 1.17925,-0.520382 0,-0.285951 -0.53064,-0.84767 -1.17925,-1.248503 -0.2027,-0.125262 -0.39364,-0.188518 -0.5607,-0.195337 z m 44.88615,0.08526 c -0.29177,-0.02061 -0.5929,0.04757 -0.87798,0.223761 -1.21951,0.753766 -0.16803,2.834452 1.43247,2.834452 0.61031,0 1.10949,-0.441968 1.10949,-0.982369 0,-1.15158 -0.78864,-2.013995 -1.66398,-2.075844 z m 11.63857,14.520045 c -6.98619,-0.03235 -21.58563,1.499862 -24.92199,2.768306 -3.64437,1.385534 -3.51911,5.146044 0.29869,8.963794 2.95637,2.95645 3.32464,3.01684 13.48961,2.22157 5.74776,-0.44987 11.94185,-1.21274 13.76453,-1.69757 2.94288,-0.78188 3.35378,-1.48354 3.668,-6.26681 0.35293,-5.371242 0.34222,-5.387993 -3.82561,-5.874569 -0.63223,-0.07382 -1.4752,-0.110099 -2.47323,-0.114721 z m -68.22581,0.544153 c -5.87085,0.06909 -7.78505,1.705792 -7.78505,5.513357 0,4.89922 2.34618,6.23544 12.67364,7.22126 5.02823,0.4805 9.49676,0.94714 9.93015,1.03767 0.43343,0.0975 1.60168,-0.14758 2.59622,-0.52917 v 5.3e-4 c 2.46687,-0.9471 4.93541,-8.55679 3.30471,-10.18749 -0.67661,-0.676598 -6.0259,-1.780826 -11.88765,-2.453598 -3.63141,-0.416787 -6.53473,-0.629581 -8.83202,-0.602546 z m 79.60134,4.261237 c -0.21721,-0.039 -0.51318,0.16381 -0.9126,0.57878 -1.21298,1.26018 -2.07899,5.48503 -1.70068,8.29871 0.0725,0.53344 1.05923,0.76779 2.19418,0.51987 1.14554,-0.2507 1.83547,-1.20761 1.5503,-2.15026 -0.2826,-0.93429 -0.54797,-3.13904 -0.58963,-4.89944 -0.0366,-1.54594 -0.17956,-2.28268 -0.54157,-2.34766 z m -46.00236,2.59984 c -5.80949,0 -8.03204,8.8949 -3.4432,13.77952 2.55415,2.71882 7.33162,3.66441 8.55039,1.6924 0.96352,-1.55895 5.29864,-2.43031 6.04924,-1.21594 0.36142,0.58495 -0.64033,1.65478 -2.22674,2.37763 -1.58647,0.72286 -3.45863,2.57414 -4.15995,4.11344 -0.92731,2.03526 -2.59681,3.00976 -6.12159,3.57342 -7.60329,1.2159 -3.04886,2.72652 7.74526,2.56884 5.35003,-0.0836 10.60893,0.47323 12.09384,1.26711 3.12778,1.67397 3.63832,4.3914 0.56379,3.00085 -1.13498,-0.51254 -7.25394,-1.15039 -13.59762,-1.41697 -9.48369,-0.39833 -12.08371,-0.12544 -14.62702,1.54306 -2.6836,1.75823 -2.83884,2.16892 -1.17305,3.1011 1.05601,0.59055 5.36746,1.39647 9.58133,1.79007 7.9528,0.74235 9.0763,1.9967 2.98689,3.33416 -1.94479,0.42758 -5.17111,1.59205 -7.16959,2.58899 -4.84623,2.4176 -8.63589,0.6745 -10.44432,-4.80539 -1.03065,-3.12302 -2.3408,-4.45957 -5.34437,-5.45083 -2.93284,-0.96798 -4.1726,-2.19389 -4.71496,-4.66328 -0.77369,-3.52248 1.67686,-10.86241 4.76663,-14.27664 1.58913,-1.75603 0.94315,-2.03567 -7.39645,-3.20601 -5.02576,-0.70476 -9.23708,-1.18417 -9.35808,-1.06298 -0.12117,0.12542 1.8604,2.51861 4.40335,5.32784 4.76047,5.2591 5.64522,8.12965 3.24476,10.5301 -2.06725,2.06715 5.6556,18.12818 10.1136,21.03282 7.81477,5.09198 10.98868,6.35965 16.02899,6.40116 2.91856,0.0279 6.63284,0.79786 8.25428,1.71876 3.52256,2.00184 6.26911,1.36375 11.79256,-2.74143 v 0.001 c 2.26999,-1.68707 6.4317,-5.47268 9.24853,-8.41241 4.81004,-5.01997 5.00556,-5.11193 3.21272,-1.51257 -1.04988,2.10782 -1.64797,3.83284 -1.3286,3.83284 1.96701,0 9.74374,-9.62307 10.95954,-13.56144 2.06703,-6.69577 1.87116,-7.25304 -1.45159,-4.13153 -1.61886,1.5209 -3.25316,2.45557 -3.63182,2.07687 -0.97591,-0.97634 2.94711,-6.65775 5.56348,-8.0579 3.67188,-1.96522 2.5561,-14.63258 -1.19786,-13.59917 -1.0546,0.28972 -5.46038,0.87317 -9.79061,1.29656 l -7.87342,0.76895 4.03799,6.69571 c 4.05421,6.72322 4.95668,9.64385 2.9807,9.64385 -1.03985,0 -4.53928,-4.94698 -8.67131,-12.25764 -1.51552,-2.68139 -2.92246,-3.6618 -5.25497,-3.6618 -2.43204,0 -3.98256,-1.1852 -6.55774,-5.01157 -2.61152,-3.8807 -4.11065,-5.01159 -6.64301,-5.01159 z m -50.19952,6.28955 c -0.36752,-0.0152 -0.61805,0.24307 -0.61805,0.7152 0,0.68666 0.53064,1.24953 1.17926,1.24953 0.64861,0 1.17925,-0.23385 1.17925,-0.51934 0,-0.28555 -0.53064,-0.84842 -1.17925,-1.24954 -0.20269,-0.12536 -0.39415,-0.18897 -0.56121,-0.19585 z m 40.1345,3.14399 c -0.28607,0 -0.84818,0.53072 -1.24901,1.17977 -0.40084,0.64904 -0.16653,1.17926 0.52038,1.17926 0.68677,0 1.2485,-0.53022 1.2485,-1.17926 0,-0.64905 -0.23377,-1.17977 -0.51987,-1.17977 z m -27.23864,9.43405 c -2.28626,0 -2.19012,0.93326 0.93172,9.03407 2.42885,6.30314 2.6868,6.58828 3.05253,3.3693 0.21977,-1.934 -0.19955,-5.5158 -0.93173,-7.95972 -0.74945,-2.50129 -2.08346,-4.44365 -3.05252,-4.44365 z m 73.74795,23.35206 -3.94705,3.35897 c -2.17086,1.84738 -5.16769,5.09881 -6.66005,7.22488 -1.49235,2.12609 -6.19898,7.29994 -10.4588,11.49749 -7.93791,7.82168 -7.83988,9.3939 0.37156,5.96294 7.56026,-3.15881 20.69434,-19.15954 20.69434,-25.21086 z M 114.125,166.55939 c -2.11004,0 -4.07059,3.50732 -3.25045,5.81515 0.4624,1.30085 1.10169,1.06867 2.78898,-1.01492 1.20359,-1.48627 2.18797,-3.17417 2.18849,-3.75119 -5.3e-4,-0.57639 -0.77728,-1.04903 -1.72702,-1.04904 z"
       sodipodi:nodetypes="sscccsccssssccccccsccsssssssscsssscccccssccscscsccssscscsscccsscscscscsscccssscssccccsssssscccccsssccccsccsssssscscsccsscscccssssssssscsssssccccssssccccsssssscccsscsscssscccccccccsccsccccccccccssscccccccsssccccsssscsssssscccsccsccscscscs" />
  </g>
</svg>
